<?xml version="1.0" encoding="UTF-8"?>
<svg width="100" height="100" viewBox="0 0 100 100" xmlns="http://www.w3.org/2000/svg">
    <path d="M80,50 C80,30 65,15 45,15 C25,15 10,30 10,50 C10,70 25,85 45,85 C65,85 80,70 80,50 Z" 
          fill="#4a6741" opacity="0.2"/>
    <path d="M75,45 C75,25 60,10 40,10 C20,10 5,25 5,45 C5,65 20,80 40,80 C60,80 75,65 75,45 Z" 
          fill="#4a6741" opacity="0.3"/>
    <path d="M70,40 C70,20 55,5 35,5 C15,5 0,20 0,40 C0,60 15,75 35,75 C55,75 70,60 70,40 Z" 
          fill="#4a6741"/>
    <path d="M35,20 Q40,18 45,20 T55,20 Q60,18 65,20" 
          stroke="white" fill="none" stroke-width="2"/>
    <circle cx="30" cy="30" r="3" fill="white"/>
    <circle cx="60" cy="30" r="3" fill="white"/>
    <path d="M45,40 Q47,45 50,40" 
          stroke="white" fill="none" stroke-width="2"/>
</svg> 